<!DOCTYPE svg
  PUBLIC '-//W3C//DTD SVG 1.1//EN'
  'http://www.w3.org/Graphics/SVG/1.1/DTD/svg11.dtd'>

<svg xmlns="http://www.w3.org/2000/svg" xml:space="preserve" height="528px" width="48px" version="1.1" y="0px" x="0px" xmlns:xlink="http://www.w3.org/1999/xlink" viewBox="0 0 48 528" enable-background="new 0 0 48 528">
    <g fill="#fff" clip-rule="evenodd" fill-rule="evenodd">
        <path d="m12.296 19.45c2.237 0 4.05 1.813 4.05 4.05s-1.813 4.05-4.05 4.05-4.05-1.813-4.05-4.05 1.813-4.05 4.05-4.05z"/>
        <path d="m24.002 19.45c2.236 0 4.051 1.813 4.051 4.05s-1.814 4.05-4.051 4.05c-2.237 0-4.05-1.813-4.05-4.05s1.813-4.05 4.05-4.05z"/>
        <path d="m35.684 19.45c2.236 0 4.051 1.813 4.051 4.05s-1.814 4.05-4.051 4.05-4.049-1.813-4.049-4.05 1.812-4.05 4.049-4.05z"/>
    </g>
    <path d="m30.186 68.209l-3.613 0.008v-2.431s-0.076-1.333 1.387-1.333c0-0.015 2.211 0 2.211 0v-3.901h-3.902s-4.471-0.259-4.471 5.075v2.601l-2.377 0.005v3.863h2.377v11.681h4.776v-11.682h3.201l0.411-3.886z" fill="#fff"/>
    <path d="m37.881 112.57c-0.942 0.417-1.953 0.7-3.014 0.826 1.084-0.649 1.914-1.676 2.307-2.901-1.014 0.602-2.137 1.038-3.33 1.273-0.957-1.02-2.319-1.655-3.828-1.655-3.384 0-5.873 3.159-5.107 6.438-4.358-0.219-8.222-2.306-10.808-5.479-1.374 2.357-0.713 5.44 1.623 7.001-0.86-0.027-1.668-0.263-2.375-0.656-0.057 2.429 1.685 4.702 4.206 5.208-0.738 0.2-1.546 0.247-2.368 0.089 0.667 2.083 2.604 3.599 4.898 3.641-2.204 1.728-4.98 2.499-7.763 2.171 2.321 1.488 5.077 2.356 8.038 2.356 9.735 0 15.235-8.223 14.905-15.598 1.023-0.74 1.913-1.66 2.616-2.72z" fill="#fff"/>
    <path fill="#fff" clip-rule="evenodd" d="m23.919 169.8l-11.749-8.987v-1.952c0-0.625 0.505-1.13 1.129-1.13h21.457c0.623 0 1.129 0.505 1.129 1.13v1.786l-11.966 9.15zm-0.008 1.98l0.008-0.007 0.009 0.007 0.024-0.032 11.933-9.129v14.318c0 0.624-0.506 1.13-1.129 1.13h-21.457c-0.624 0-1.129-0.506-1.129-1.13v-14.151l11.716 8.962 0.025 0.03z" fill-rule="evenodd"/>
    <path fill="#fff" clip-rule="evenodd" d="m24.324 202.22c8.73 0 15.811 5.31 15.811 11.857 0 6.549-7.08 11.858-15.811 11.858-2.016 0-3.944-0.283-5.717-0.8-1.407-0.409-7.562 4.297-7.562 4.297s1.506-7.367 0.641-8.23c-1.991-1.983-3.171-4.45-3.171-7.125-0.001-6.55 7.077-11.86 15.809-11.86z" fill-rule="evenodd"/>
        <path fill="#fff" clip-rule="evenodd" d="m35.754 265.92h-23.4c-1.077 0-1.95-0.873-1.95-1.95s0.873-1.95 1.95-1.95h23.4c1.076 0 1.949 0.873 1.949 1.95s-0.873 1.95-1.949 1.95zm0-7.98h-23.4c-1.077 0-1.95-0.873-1.95-1.95 0-1.076 0.873-1.949 1.95-1.949h23.4c1.076 0 1.949 0.873 1.949 1.949 0 1.08-0.873 1.95-1.949 1.95zm-23.4 12.11h23.4c1.076 0 1.949 0.873 1.949 1.95s-0.873 1.95-1.949 1.95h-23.4c-1.077 0-1.95-0.873-1.95-1.95s0.873-1.95 1.95-1.95z" fill-rule="evenodd"/>
    <path d="m18.931 323.24l3.155 3.16h-12.885v-12.885l3.16 3.154 5.161-5.161 6.57 6.57-5.161 5.16zm6.485-25.94l3.154 3.159-5.055 5.056 6.57 6.57 5.056-5.056 3.16 3.154v-12.884h-12.885z" fill="#fff"/>
    <path d="m24.565 373.5c-7.461 0-13.511-6.048-13.511-13.511 0-7.461 6.05-13.511 13.511-13.511 7.463 0 13.513 6.05 13.513 13.511 0 7.46-6.05 13.51-13.513 13.51zm-3.052-6.48c0 0.619 0.194 1.078 0.583 1.38 0.389 0.303 0.828 0.453 1.318 0.453 0.866 0 1.679-0.367 2.439-1.102 0.464-0.443 1.133-1.311 2.007-2.593l-0.589-0.379c-0.308 0.506-0.662 0.99-1.063 1.452-0.403 0.464-0.74 0.695-1.012 0.695-0.105 0-0.201-0.028-0.29-0.086-0.087-0.057-0.13-0.181-0.13-0.373 0-0.19 0.078-0.61 0.234-1.257 0.062-0.255 0.18-0.707 0.354-1.363l2.082-7.635-1.144 0.222c-0.398 0.077-1.077 0.174-2.035 0.282-0.958 0.109-1.689 0.182-2.192 0.215v0.708c0.601 0.025 1.017 0.082 1.243 0.17s0.341 0.31 0.341 0.67c0 0.061-0.007 0.126-0.021 0.194-0.013 0.072-0.028 0.141-0.045 0.209l-1.65 6.027c-0.123 0.444-0.213 0.803-0.274 1.073-0.104 0.48-0.156 0.83-0.156 1.05zm5.196-16.79c-0.499 0-0.925 0.174-1.279 0.524-0.353 0.35-0.529 0.771-0.529 1.271 0 0.497 0.176 0.922 0.529 1.277 0.354 0.353 0.78 0.53 1.279 0.53 0.497 0 0.92-0.178 1.27-0.53 0.352-0.355 0.523-0.78 0.523-1.277 0-0.499-0.172-0.921-0.523-1.271-0.35-0.35-0.773-0.52-1.27-0.52z" fill="#fff"/>
    <g fill="#fff">
        <path d="m31.965 422.67h-22.465v-22.463l22.464-0.001v22.46zm-1.98-20.49l-18.506-0.001v16.609h18.506v-16.61z"/>
        <path d="m16.456 400.2"/>
        <polygon points="17.181 399.45 19.229 399.44 20.707 393.93 38.582 398.72 34.284 414.77 32.689 414.34 32.689 418.35 35.191 419.02 41.005 397.32 19.308 391.51"/>
    </g>
    <path fill="#fff" clip-rule="evenodd" d="m33.426 522.53c-0.332 0-0.664-0.127-0.917-0.381l-18.362-18.41 18.361-18.411c0.503-0.506 1.321-0.51 1.827-0.006 0.506 0.502 0.509 1.319 0.006 1.826l-16.552 16.59 16.553 16.59c0.503 0.507 0.5 1.324-0.006 1.827-0.252 0.25-0.581 0.37-0.91 0.37" fill-rule="evenodd"/>
    <path fill="#fff" clip-rule="evenodd" d="m15.439 474.53c-0.329 0-0.658-0.125-0.91-0.375-0.506-0.503-0.509-1.32-0.006-1.827l16.553-16.59-16.553-16.591c-0.503-0.507-0.5-1.324 0.006-1.826 0.506-0.504 1.324-0.5 1.827 0.006l18.361 18.411-18.361 18.411c-0.252 0.25-0.585 0.38-0.917 0.38" fill-rule="evenodd"/>
</svg>
